<?xml version="1.0" encoding="utf-8"?>
<!-- Generator: Adobe Illustrator 23.1.0, SVG Export Plug-In . SVG Version: 6.00 Build 0)  -->
<svg version="1.1" id="Layer_1" xmlns="http://www.w3.org/2000/svg" xmlns:xlink="http://www.w3.org/1999/xlink" x="0px" y="0px"
	 viewBox="0 0 800 800" style="enable-background:new 0 0 800 800;" xml:space="preserve">
<style type="text/css">
	.st0{fill:#FFFDFD;}
	.st1{fill:none;stroke:#FFFFFF;stroke-miterlimit:10;}
</style>
<g id="XMLID_1_">
	<g>
		<path class="st0" d="M741.5,679.5V708c0,63.2-50.7,113.8-113.8,113.8H172.3c-63.2,0-113.8-50.7-113.8-113.8v-28.5
			c0-141.8,114.3-256.1,256.1-256.1h170.8C627.2,423.4,741.5,537.7,741.5,679.5z"/>
		<circle class="st0" cx="400" cy="195.7" r="170.8"/>
	</g>
	<g>
		<circle class="st1" cx="400" cy="195.7" r="170.8"/>
		<path class="st1" d="M314.6,423.4c-141.8,0-256.1,114.3-256.1,256.1V708c0,63.2,50.7,113.8,113.8,113.8h455.4
			c63.2,0,113.8-50.7,113.8-113.8v-28.5c0-141.8-114.3-256.1-256.1-256.1L314.6,423.4L314.6,423.4z"/>
	</g>
</g>
</svg>
