<?xml version="1.0" standalone="no"?>
<!DOCTYPE svg PUBLIC "-//W3C//DTD SVG 20010904//EN"
 "http://www.w3.org/TR/2001/REC-SVG-20010904/DTD/svg10.dtd">
<svg version="1.0" xmlns="http://www.w3.org/2000/svg"
 width="498.000000pt" height="441.000000pt" viewBox="0 0 498.000000 441.000000"
 preserveAspectRatio="xMidYMid meet">

<g transform="translate(0.000000,441.000000) scale(0.100000,-0.100000)"
fill="#000000" stroke="none">
<path d="M2545 4054 c-76 -9 -210 -35 -300 -61 -814 -227 -1375 -965 -1375
-1808 0 -942 699 -1737 1635 -1861 161 -22 448 -14 590 15 273 55 491 145 706
290 520 350 829 930 829 1556 0 831 -550 1567 -1345 1800 -184 54 -266 66
-490 69 -115 2 -228 2 -250 0z m-387 -247 c-221 -221 -303 -509 -228 -803 109
-427 531 -704 960 -630 225 39 420 163 557 354 l46 63 66 -6 c395 -40 748
-321 871 -695 15 -47 31 -107 34 -135 7 -50 7 -50 -27 31 -109 265 -331 456
-604 518 -104 23 -288 22 -389 -4 -155 -40 -297 -124 -410 -241 -154 -162
-226 -345 -226 -579 0 -129 15 -212 63 -332 34 -88 35 -85 -36 -178 -133 -173
-332 -303 -558 -363 -118 -31 -375 -31 -493 0 -79 21 -177 59 -124 48 346 -70
673 45 874 308 238 311 233 743 -10 1045 -153 189 -350 290 -617 317 l-69 7
-23 51 c-60 132 -103 366 -90 485 35 300 113 473 296 660 57 57 207 172 226
172 2 0 -38 -42 -89 -93z"/>
</g>
</svg>
